<?xml version="1.0" encoding="UTF-8" standalone="no"?><svg xmlns:dc="http://purl.org/dc/elements/1.1/" xmlns:cc="http://creativecommons.org/ns#" xmlns:rdf="http://www.w3.org/1999/02/22-rdf-syntax-ns#" xmlns:svg="http://www.w3.org/2000/svg" xmlns="http://www.w3.org/2000/svg" x="0px" y="0px" viewBox="0 0 512 512" width="100%" height="100%" id="svg" version="1.1"><defs id="d"><filter id="f"><feGaussianBlur stdDeviation="4.9168363"/></filter></defs><g transform="matrix(0.5225023,0,0,0.52545156,-5.2772732,-6.72578)" id="g"><path style="fill:#9ba796;fill-opacity:1;stroke:none;filter:url(#f)" d="m 990,946.9 0,0 c 0,-0.1 0,-0.1 0,-0.2 -0.1,-4.1 -0.9,-8.1 -2.2,-11.8 C 953,761.5 828.1,620.7 664,563.5 745.8,510 799.8,417.6 799.8,312.6 799.8,147 665.6,12.8 500,12.8 334.4,12.8 200.2,147 200.2,312.6 c 0,105 54,197.4 135.8,250.9 -164.1,57.2 -289,198 -323.7,371.4 -1.3,3.7 -2.1,7.7 -2.2,11.8 0,0.1 0,0.1 0,0.2 l 0,0 c 0,0.4 0,0.7 0,1.1 0,21.6 17.5,39.2 39.2,39.2 21.7,0 231.90644,10.92506 243.25139,-9.57151 C 352.86195,868.66734 40.079082,904.43371 104.21214,931.32167 l 0.15775,0.66144 c 46.30598,-180.1817 187.69575,57.86024 389.89575,57.86024 202.2,0 408.29627,-247.21103 416.53436,-42.94335 l -0.668,-0.72988 C 968.55364,914.82042 665.51097,867.60597 713.03065,977.56006 723.33268,1001.3976 929.1,987.2 950.8,987.2 c 21.6,0 39.2,-17.5 39.2,-39.2 0,-0.3 0,-0.7 0,-1.1 z M 276.8,312.5 c 0,-123.3 99.9,-223.2 223.2,-223.2 123.3,0 223.2,99.9 223.2,223.2 0,123.3 -99.9,223.3 -223.2,223.3 -123.3,0 -223.2,-100 -223.2,-223.3 z" id="p"/></g></svg>
